<svg width="212" height="235" viewBox="0 0 212 235" fill="none" xmlns="http://www.w3.org/2000/svg">
<g clip-path="url(#clip0_466_65184)">
<path d="M143.519 60.1856C144.292 60.9461 145.212 61.5491 146.224 61.9595C147.237 62.3699 148.323 62.5797 149.42 62.5767C150.516 62.5797 151.601 62.3698 152.614 61.9594C153.626 61.549 154.546 60.9461 155.318 60.1856L194.421 21.9385C194.965 21.4064 195.271 20.6848 195.271 19.9324C195.271 19.18 194.965 18.4584 194.421 17.9263C193.877 17.3944 193.139 17.0956 192.37 17.0956C191.601 17.0956 190.863 17.3944 190.319 17.9263L151.216 56.1734C150.981 56.4049 150.701 56.5884 150.392 56.7134C150.084 56.8383 149.754 56.9022 149.42 56.9013C149.086 56.9025 148.755 56.8388 148.446 56.7139C148.137 56.5889 147.857 56.4052 147.621 56.1734L142.861 51.5146L137.979 46.7374C137.503 46.2715 137.235 45.6395 137.235 44.9805C137.235 44.3216 137.503 43.6896 137.979 43.2236L177.082 4.97655C177.626 4.44399 177.932 3.72199 177.932 2.96919C177.932 2.21639 177.626 1.49439 177.082 0.961833C176.538 0.429924 175.8 0.131127 175.031 0.131127C174.262 0.131127 173.524 0.429924 172.98 0.961833L133.877 39.2089C132.314 40.7407 131.436 42.8164 131.436 44.9805C131.436 47.1447 132.314 49.2204 133.877 50.7521L136.7 53.5133L97.6824 91.5285L61.3265 55.9686C66.7401 50.2808 71.2867 43.8591 74.826 36.9018C74.9696 36.6183 75.0186 36.298 74.9661 35.9858C74.9136 35.6737 74.7622 35.3856 74.5333 35.1621L39.0352 0.441183C38.8174 0.226257 38.5386 0.0802931 38.2349 0.022215C37.9313 -0.0358631 37.6168 -0.0033782 37.3323 0.115464C28.8522 3.58681 21.1605 8.66941 14.7029 15.0688C8.48964 21.2442 3.54027 28.5241 0.121146 36.5168C0.00201298 36.7941 -0.0301765 37.0998 0.0286663 37.3951C0.0875091 37.6903 0.234744 37.9618 0.451646 38.175L35.9498 72.896C36.178 73.1203 36.4724 73.2688 36.7915 73.3206C37.1106 73.3724 37.4383 73.3249 37.7284 73.1847C44.8407 69.7208 51.406 65.273 57.2219 59.9783L93.5728 95.5309L11.1735 175.823C10.6297 176.355 10.3242 177.076 10.3242 177.829C10.3242 178.581 10.6297 179.303 11.1735 179.835C11.4425 180.1 11.7629 180.311 12.1158 180.454C12.4688 180.597 12.8474 180.67 13.2295 180.669C13.6094 180.67 13.9858 180.597 14.3369 180.455C14.688 180.313 15.007 180.105 15.2755 179.842L97.6824 99.5456L179.774 179.84C180.043 180.103 180.363 180.312 180.715 180.454C181.067 180.596 181.444 180.669 181.825 180.669C182.206 180.67 182.583 180.597 182.935 180.455C183.287 180.312 183.607 180.103 183.876 179.84C184.146 179.576 184.36 179.264 184.506 178.919C184.652 178.575 184.728 178.205 184.728 177.832C184.728 177.459 184.652 177.09 184.506 176.746C184.36 176.401 184.146 176.088 183.876 175.825L101.787 95.5432L140.799 57.5256L143.519 60.1856ZM34.0981 7.89566C34.7367 7.27108 35.6029 6.92021 36.5061 6.92021C37.4092 6.92021 38.2754 7.27108 38.9141 7.89566L66.5764 34.8093C66.8937 35.1176 67.1458 35.4841 67.3182 35.8878C67.4906 36.2915 67.5799 36.7245 67.5811 37.162C67.5823 37.5995 67.4952 38.0329 67.325 38.4375C67.1548 38.8421 66.9047 39.2099 66.589 39.5198C66.2734 39.8324 65.8974 40.0805 65.483 40.2499C65.0686 40.4194 64.6239 40.5067 64.1748 40.5069C63.7287 40.5076 63.2869 40.422 62.8747 40.2552C62.4625 40.0883 62.0882 39.8435 61.773 39.5346L34.1081 12.6013C33.4698 11.9781 33.1102 11.1327 33.1083 10.2505C33.1064 9.36835 33.4624 8.52147 34.0981 7.89566ZM40.7885 65.1429C40.4727 65.4553 40.0968 65.7034 39.6824 65.8728C39.268 66.0423 38.8233 66.1296 38.3742 66.1299C37.4731 66.131 36.6084 65.7822 35.97 65.1602L7.81565 37.7506C7.49909 37.4412 7.24795 37.0739 7.07661 36.6695C6.90528 36.2652 6.8171 35.8318 6.8171 35.3941C6.8171 34.9564 6.90528 34.523 7.07661 34.1186C7.24795 33.7143 7.49909 33.3469 7.81565 33.0376C8.45477 32.4128 9.32136 32.0619 10.2249 32.0619C11.1285 32.0619 11.9951 32.4128 12.6342 33.0376L40.7809 60.4422C41.4176 61.066 41.7758 61.9109 41.7772 62.7923C41.7786 63.6736 41.4231 64.5197 40.7885 65.1454V65.1429ZM49.2297 56.5065C48.9141 56.8191 48.5382 57.0674 48.1238 57.2368C47.7093 57.4062 47.2646 57.4935 46.8154 57.4935C45.9151 57.4945 45.0512 57.1456 44.4137 56.5238L16.5243 29.3807C15.8858 28.756 15.527 27.9088 15.527 27.0254C15.527 26.142 15.8858 25.2948 16.5243 24.6701C16.8398 24.3596 17.2147 24.1131 17.6276 23.9444C18.0406 23.7758 18.4835 23.6884 18.931 23.6872C19.3785 23.6861 19.8218 23.7712 20.2356 23.9377C20.6495 24.1043 21.0257 24.3489 21.3428 24.6578L49.2323 51.8132C49.8659 52.4376 50.2212 53.2818 50.2207 54.1616C50.2203 55.0413 49.864 55.8852 49.2297 56.5089V56.5065ZM25.3415 21.0551C25.025 20.746 24.7739 20.3788 24.6026 19.9747C24.4313 19.5706 24.3431 19.1374 24.3431 18.6999C24.3431 18.2624 24.4313 17.8291 24.6026 17.425C24.7739 17.0209 25.025 16.6537 25.3415 16.3446C25.6567 16.0342 26.0314 15.7877 26.4442 15.6191C26.8569 15.4504 27.2996 15.3631 27.7468 15.3619C28.1941 15.3608 28.6373 15.4459 29.0509 15.6124C29.4645 15.7789 29.8406 16.0235 30.1575 16.3322L57.8224 43.2656C58.4611 43.8907 58.8199 44.7383 58.8199 45.6221C58.8199 46.5059 58.4611 47.3535 57.8224 47.9786C57.5072 48.2912 57.1318 48.5394 56.7177 48.7088C56.3037 48.8783 55.8594 48.9656 55.4106 48.9656C54.5095 48.9667 53.6448 48.6179 53.0064 47.9959L25.3415 21.0551Z" fill="black"/>
<path d="M161.498 112.702C159.112 114.602 156.003 115.851 152.895 115.851C143.349 115.851 141.684 104.559 141.684 97.3444C141.684 90.5586 143.294 78.6699 152.507 78.6699C156.669 78.6699 159.722 81.1671 161.776 84.4786L158.496 86.4329C157.164 84.0985 155.216 82.0899 152.28 82.0899C146.119 82.0899 145.564 93.1643 145.564 97.4529C145.564 109.887 149.283 112.436 152.946 112.436C154.697 112.39 156.388 111.8 157.774 110.753V99.8366H150.837V96.5794H161.493L161.498 112.702Z" fill="#FF0000"/>
<path d="M43.4318 87.4032C42.8213 84.7432 41.4893 82.0832 38.3257 82.0832C34.8291 82.0832 33.4416 84.8518 33.4416 87.8918C33.4416 90.8232 34.0521 91.7461 39.8797 95.1661C44.4207 97.8262 47.5389 100.052 47.5389 105.643C47.5389 111.343 44.4308 115.849 38.2046 115.849C31.6453 115.849 29.2689 111.615 28.7139 105.861L32.4325 105.367C32.937 109.384 33.82 112.424 38.3156 112.424C41.5347 112.424 43.8102 110.307 43.8102 105.964C43.8102 101.187 40.6467 99.5485 36.8171 97.3869C32.5435 94.9441 29.7129 93.2069 29.7129 87.8868C29.7129 83.0011 33.043 78.6582 38.3156 78.6582C43.5327 78.6582 46.0858 82.2954 47.0293 86.8554L43.4318 87.4032Z" fill="#FF0000"/>
<path d="M87.6895 169.236V165.979H90.6865V136.284H87.6895V133.02H99.0117C103.063 133.02 107.226 136.331 107.226 142.149C107.226 145.135 106.005 147.687 103.285 149.152C107.448 150.944 108.946 154.038 108.946 158.381C108.946 165.927 104.728 169.238 99.6122 169.238L87.6895 169.236ZM97.7352 147.901C101.565 147.901 103.341 145.947 103.341 142.147C103.341 137.705 101.07 136.284 96.5697 136.284H94.4051V147.901H97.7352ZM99.4557 165.979C102.786 165.979 105.061 163.59 105.061 158.329C105.061 152.955 102.342 151.173 98.4567 151.173H94.4051V165.993L99.4557 165.979Z" fill="black"/>
<path d="M90.6855 23.2012H108.89V26.4583H94.4041V38.4013H106.559V41.6585H94.4041V59.4101H90.6855V23.2012Z" fill="black"/>
<path d="M203.74 170.014C205.168 170.016 206.571 170.373 207.817 171.053C209.11 171.737 210.175 172.771 210.885 174.031C211.613 175.265 211.997 176.665 212 178.09C211.999 179.506 211.619 180.898 210.9 182.127C210.189 183.374 209.134 184.4 207.855 185.088C206.602 185.788 205.184 186.157 203.74 186.159C202.298 186.157 200.881 185.788 199.628 185.088C198.344 184.394 197.286 183.36 196.576 182.105C195.861 180.878 195.485 179.492 195.483 178.08C195.486 176.655 195.871 175.256 196.598 174.021C197.308 172.761 198.373 171.727 199.666 171.043C200.913 170.367 202.315 170.013 203.74 170.014ZM203.753 171.595C202.61 171.597 201.485 171.883 200.486 172.427C199.448 172.98 198.593 173.811 198.021 174.823C197.434 175.816 197.123 176.943 197.121 178.09C197.121 179.226 197.424 180.342 198.001 181.327C198.571 182.339 199.421 183.173 200.453 183.733C201.457 184.298 202.595 184.596 203.753 184.597C204.913 184.597 206.053 184.299 207.058 183.733C208.088 183.17 208.937 182.337 209.51 181.327C210.088 180.342 210.392 179.226 210.393 178.09C210.391 176.943 210.08 175.816 209.492 174.823C208.921 173.81 208.065 172.979 207.025 172.427C206.024 171.884 204.898 171.597 203.753 171.595ZM200.012 182.416V173.841H201.79C203.459 173.841 204.393 173.848 204.593 173.863C205.071 173.883 205.539 174 205.968 174.206C206.313 174.402 206.596 174.686 206.788 175.028C207.009 175.403 207.122 175.829 207.116 176.262C207.128 176.849 206.906 177.418 206.495 177.848C206.032 178.313 205.415 178.602 204.755 178.665C204.976 178.74 205.184 178.849 205.37 178.988C205.59 179.188 205.789 179.408 205.963 179.647C206.026 179.731 206.243 180.079 206.609 180.691L207.643 182.418H205.446L204.712 181.026C204.207 180.092 203.798 179.503 203.483 179.26C203.127 179.006 202.694 178.877 202.255 178.894H201.79V182.418L200.012 182.416ZM201.79 177.542H202.512C203.541 177.542 204.177 177.505 204.427 177.426C204.662 177.357 204.869 177.215 205.014 177.022C205.157 176.83 205.232 176.599 205.229 176.363C205.232 176.133 205.158 175.909 205.02 175.724C204.87 175.53 204.66 175.39 204.422 175.324C204.163 175.242 203.526 175.2 202.512 175.2H201.79V177.542Z" fill="black"/>
<path d="M68.2543 204.938H60.4841V212.479H59.3262V196.193H70.6913V197.383H60.4841V203.761H68.2543V204.938Z" fill="black"/>
<path d="M85.5173 211.516V212.723C85.0955 212.705 84.6814 212.606 84.2988 212.431C83.96 212.27 83.6493 212.058 83.378 211.802C83.1105 211.547 82.7742 211.188 82.3688 210.724C81.8811 211.358 81.2429 211.866 80.5095 212.204C79.7472 212.53 78.9219 212.691 78.0902 212.676C77.3447 212.68 76.6062 212.535 75.9206 212.249C75.2587 211.974 74.6894 211.523 74.2783 210.946C73.8392 210.303 73.6185 209.54 73.6476 208.767C73.6303 208.017 73.7973 207.274 74.1345 206.601C74.4433 205.999 74.8632 205.459 75.3731 205.007C75.9692 204.495 76.6015 204.026 77.2652 203.602C76.7969 202.924 76.369 202.22 75.9837 201.493C75.6857 200.898 75.5303 200.245 75.5295 199.583C75.5295 198.489 75.8457 197.621 76.4781 196.98C76.799 196.657 77.1856 196.405 77.6129 196.238C78.0401 196.071 78.4984 195.994 78.958 196.012C79.8208 195.981 80.662 196.279 81.3042 196.844C81.9181 197.4 82.2242 198.194 82.2225 199.225C82.2549 200.193 81.9408 201.142 81.3345 201.907C80.643 202.719 79.8196 203.413 78.8975 203.963L80.1791 205.781C80.5154 206.245 81.0595 206.994 81.8113 208.027C81.9569 208.26 82.1152 208.484 82.2856 208.7C82.5746 208.154 82.79 207.574 82.9264 206.973C83.0841 206.182 83.2011 205.384 83.277 204.582H84.3921C84.2407 206.574 83.7934 208.281 83.05 209.702C83.4642 210.216 83.928 210.689 84.435 211.116C84.7612 211.326 85.1308 211.462 85.5173 211.516ZM81.6322 209.764C81.0822 209.03 80.4347 208.126 79.6896 207.05L79.339 206.556L77.9136 204.602C77.3754 204.96 76.817 205.357 76.2384 205.791C75.7857 206.15 75.416 206.598 75.1537 207.106C74.8858 207.624 74.7483 208.197 74.7525 208.777C74.7309 209.169 74.8092 209.56 74.9806 209.915C75.1519 210.27 75.4107 210.577 75.7339 210.81C76.3917 211.282 77.1889 211.53 78.0044 211.518C78.7111 211.539 79.412 211.389 80.0458 211.083C80.6796 210.777 81.2269 210.323 81.6397 209.762L81.6322 209.764ZM76.8187 200.511C76.9405 200.852 77.0924 201.182 77.2728 201.498L77.4166 201.744L78.2239 202.978C78.9925 202.518 79.6914 201.955 80.3001 201.305C80.8152 200.732 81.0916 199.991 81.0746 199.228C81.0916 198.952 81.0456 198.676 80.94 198.42C80.8344 198.164 80.6718 197.934 80.4641 197.747C80.0457 197.391 79.505 197.202 78.9504 197.219C78.6448 197.216 78.3415 197.272 78.058 197.384C77.7744 197.496 77.5162 197.661 77.298 197.87C76.8763 198.34 76.6542 198.95 76.6774 199.575C76.6733 199.893 76.7236 200.209 76.8263 200.511H76.8187Z" fill="black"/>
<path d="M99.525 205.782C99.9651 206.504 100.184 207.334 100.156 208.173C100.156 209.761 99.6806 210.876 98.7303 211.519C97.7801 212.163 96.5397 212.484 95.0092 212.484H88.5635V196.193H95.0092C96.4421 196.193 97.5892 196.553 98.4503 197.272C99.3114 197.991 99.742 199.113 99.742 200.64C99.742 202.333 99.06 203.552 97.696 204.299C98.4448 204.602 99.0824 205.119 99.525 205.782ZM89.6861 197.37V203.749H95.0168C96.1184 203.749 97.0005 203.51 97.6632 203.031C98.3258 202.552 98.6563 201.759 98.6546 200.65C98.6546 199.541 98.3183 198.719 97.6455 198.182C96.8897 197.625 95.9659 197.329 95.0193 197.341L89.6861 197.37ZM89.6861 211.295H95.0168C97.7077 211.295 99.0532 210.254 99.0532 208.173C99.0532 206.017 97.7077 204.938 95.0168 204.938H89.6861V211.295Z" fill="black"/>
<path d="M115.115 197.088C116.174 197.829 116.918 198.925 117.345 200.378H116.167C115.494 198.221 113.786 197.143 111.043 197.143C110.298 197.15 109.559 197.272 108.853 197.503C108.133 197.721 107.477 198.106 106.941 198.626C106.685 198.88 106.484 199.182 106.351 199.514C106.218 199.846 106.155 200.201 106.166 200.558C106.177 201.069 106.334 201.567 106.621 201.994C107.023 202.487 107.695 202.888 108.639 203.196C109.605 203.509 110.592 203.757 111.593 203.936C112.552 204.086 113.499 204.304 114.426 204.587C115.221 204.84 115.94 205.279 116.523 205.866C117.12 206.464 117.433 207.28 117.464 208.313V208.405C117.481 208.863 117.404 209.319 117.237 209.747C117.07 210.176 116.817 210.567 116.492 210.897C115.836 211.546 115.022 212.021 114.126 212.279C113.232 212.55 112.302 212.689 111.366 212.693C109.617 212.693 108.123 212.319 106.883 211.571C105.643 210.822 104.845 209.542 104.486 207.731H105.768C105.975 209.063 106.621 210.029 107.708 210.628C108.826 211.235 110.087 211.545 111.366 211.526C112.124 211.523 112.878 211.42 113.609 211.223C114.339 211.038 115.012 210.683 115.571 210.189C115.839 209.953 116.05 209.663 116.192 209.339C116.333 209.015 116.4 208.665 116.389 208.313C116.389 207.93 116.29 207.552 116.102 207.215C115.915 206.878 115.644 206.592 115.314 206.384C114.641 205.905 113.325 205.478 111.366 205.103C110.335 204.965 109.317 204.751 108.318 204.464C107.452 204.207 106.661 203.748 106.015 203.127C105.354 202.497 105.024 201.644 105.024 200.568C104.992 199.623 105.323 198.701 105.952 197.984C106.58 197.29 107.381 196.768 108.278 196.469C109.161 196.151 110.094 195.984 111.035 195.976C112.692 195.976 114.052 196.347 115.115 197.088Z" fill="black"/>
<path d="M129.537 203.746H135.943V212.476H134.828V209.787C134.165 210.694 133.289 211.434 132.275 211.943C131.221 212.462 130.056 212.723 128.877 212.706C127.497 212.728 126.14 212.358 124.971 211.64C123.812 210.912 122.885 209.881 122.295 208.664C121.637 207.319 121.308 205.844 121.333 204.353C121.31 202.874 121.635 201.41 122.284 200.075C122.874 198.857 123.797 197.824 124.951 197.089C126.121 196.354 127.487 195.974 128.877 195.998C130.37 195.979 131.83 196.423 133.049 197.266C134.305 198.148 135.279 199.36 135.86 200.761L134.621 200.783C134.1 199.71 133.293 198.795 132.285 198.133C131.274 197.482 130.086 197.145 128.877 197.165C127.704 197.15 126.553 197.475 125.569 198.098C124.579 198.734 123.786 199.624 123.276 200.669C122.713 201.818 122.431 203.079 122.451 204.353C122.432 205.618 122.71 206.87 123.266 208.013C123.769 209.059 124.554 209.952 125.536 210.596C126.528 211.23 127.69 211.558 128.874 211.539C130.184 211.56 131.465 211.162 132.522 210.404C133.583 209.638 134.386 208.578 134.825 207.361V204.936H129.527L129.537 203.746Z" fill="black"/>
<path d="M44.4089 232.387H43.4275L41.4925 226.605H41.4522L39.5172 232.387H38.5787L36.1392 225.406H37.1331L39.0681 231.296H39.0959L41.0031 225.406H42.0248L43.932 231.296H43.9598L45.8796 225.406H46.8484L44.4089 232.387Z" fill="black"/>
<path d="M57.4441 232.388H56.4627L54.5278 226.606H54.4849L52.5499 232.388H51.6114L49.187 225.407H50.181L52.116 231.297H52.1437L54.051 225.407H55.0601L56.9673 231.297H56.995L58.9149 225.407H59.8811L57.4441 232.388Z" fill="black"/>
<path d="M70.4826 232.388H69.5012L67.5662 226.606H67.5259L65.5909 232.388H64.6499L62.2129 225.407H63.2069L65.1418 231.297H65.1696L67.0768 225.407H68.1086L70.0159 231.297H70.0411L71.9635 225.407H72.9297L70.4826 232.388Z" fill="black"/>
<path d="M76.5454 231.173V232.384H75.3193V231.173H76.5454Z" fill="black"/>
<path d="M82.1371 223.525C81.9429 223.651 81.8445 223.918 81.8445 224.325V225.406H83.5751V226.097H81.8445V232.386H80.9464V226.097H79.748V225.406H80.9464V224.234C80.9464 223.131 81.5729 222.58 82.8259 222.58C83.1583 222.571 83.49 222.616 83.8072 222.714V223.454C83.5221 223.381 83.2291 223.341 82.9343 223.335C82.6555 223.323 82.3788 223.389 82.1371 223.525Z" fill="black"/>
<path d="M87.9449 226.471C88.1576 226.103 88.4713 225.8 88.8506 225.597C89.2802 225.359 89.767 225.237 90.2608 225.244C90.936 225.212 91.5969 225.442 92.0999 225.883C92.5641 226.311 92.7962 226.916 92.7962 227.697V232.385H91.8956V228.07C91.8956 227.349 91.7543 226.836 91.4667 226.49C91.1791 226.145 90.725 225.997 90.0968 225.997C89.8156 225.992 89.5362 226.043 89.276 226.148C89.0157 226.252 88.7799 226.407 88.5832 226.604C88.1694 227.009 87.9651 227.628 87.9651 228.462V232.393H87.0796V225.405H87.9222V226.471H87.9449Z" fill="black"/>
<path d="M101.661 225.69C102.157 225.998 102.55 226.441 102.794 226.964C103.073 227.569 103.21 228.229 103.195 228.893C103.21 229.559 103.073 230.219 102.794 230.825C102.55 231.348 102.157 231.791 101.661 232.099C101.165 232.401 100.59 232.556 100.006 232.545C99.4754 232.55 98.9533 232.417 98.4922 232.16C98.0656 231.936 97.7275 231.579 97.531 231.146H97.5058V232.38H96.6606V222.739H97.5461V226.603H97.5739C97.773 226.18 98.1101 225.833 98.5325 225.616C98.9854 225.373 99.4943 225.248 100.011 225.251C100.593 225.24 101.165 225.392 101.661 225.69ZM101.613 231.02C102.05 230.499 102.269 229.79 102.269 228.893C102.269 227.997 102.05 227.285 101.613 226.756C101.401 226.5 101.132 226.296 100.825 226.161C100.518 226.025 100.183 225.962 99.8469 225.977C99.4129 225.971 98.9873 226.094 98.6259 226.33C98.253 226.582 97.9608 226.933 97.7833 227.341C97.5684 227.831 97.4635 228.36 97.4755 228.893C97.4625 229.425 97.5675 229.953 97.7833 230.441C97.963 230.846 98.2548 231.195 98.6259 231.447C98.9873 231.682 99.4129 231.805 99.8469 231.8C100.182 231.813 100.516 231.749 100.822 231.614C101.127 231.479 101.397 231.275 101.608 231.02H101.613Z" fill="black"/>
<path d="M110.379 226.368C110.014 226.106 109.57 225.97 109.118 225.981C108.676 225.959 108.24 226.076 107.871 226.314C107.722 226.412 107.601 226.545 107.518 226.701C107.436 226.857 107.395 227.031 107.399 227.207C107.389 227.358 107.422 227.509 107.494 227.643C107.566 227.777 107.675 227.889 107.808 227.967C108.169 228.154 108.561 228.275 108.966 228.325L109.758 228.458C110.364 228.537 110.946 228.74 111.466 229.053C111.87 229.322 112.074 229.778 112.074 230.417C112.087 230.724 112.021 231.028 111.881 231.303C111.742 231.578 111.534 231.814 111.277 231.989C110.675 232.382 109.962 232.578 109.239 232.549C108.503 232.576 107.779 232.368 107.175 231.957C106.911 231.773 106.688 231.538 106.52 231.266C106.353 230.995 106.244 230.692 106.201 230.378L107.034 230.19C107.068 230.428 107.151 230.657 107.277 230.862C107.403 231.068 107.57 231.248 107.768 231.389C108.194 231.683 108.705 231.832 109.226 231.816C109.714 231.837 110.197 231.71 110.608 231.451C110.777 231.345 110.914 231.198 111.008 231.026C111.102 230.853 111.15 230.66 111.146 230.464C111.16 230.299 111.126 230.133 111.05 229.985C110.973 229.837 110.856 229.712 110.712 229.625C110.302 229.418 109.859 229.279 109.403 229.213L108.626 229.092C108.067 229.012 107.532 228.814 107.059 228.512C106.858 228.361 106.699 228.163 106.597 227.936C106.495 227.71 106.452 227.461 106.474 227.214C106.467 226.937 106.531 226.662 106.66 226.414C106.788 226.167 106.977 225.954 107.21 225.795C107.768 225.415 108.438 225.225 109.118 225.255C109.566 225.247 110.011 225.331 110.424 225.502C110.803 225.66 111.139 225.901 111.406 226.208C111.652 226.488 111.813 226.83 111.87 227.195L111.053 227.367C110.964 226.963 110.724 226.607 110.379 226.368Z" fill="black"/>
<path d="M121.486 231.936C121.486 232.966 121.2 233.734 120.628 234.241C120.056 234.747 119.284 235.001 118.312 235.001C117.626 235.02 116.948 234.849 116.357 234.507C115.81 234.171 115.41 233.649 115.232 233.042L116.065 232.815C116.187 233.267 116.475 233.661 116.874 233.92C117.31 234.167 117.809 234.288 118.312 234.268C118.619 234.286 118.926 234.245 119.216 234.145C119.506 234.045 119.773 233.89 120 233.688C120.4 233.3 120.601 232.698 120.601 231.882V230.695H120.583C120.385 231.101 120.057 231.434 119.649 231.642C119.209 231.876 118.715 231.995 118.214 231.988C117.645 231.999 117.083 231.857 116.592 231.576C116.115 231.295 115.732 230.886 115.489 230.396C115.216 229.847 115.08 229.243 115.093 228.632C115.079 228.017 115.215 227.407 115.489 226.853C115.733 226.362 116.116 225.95 116.592 225.666C117.082 225.382 117.644 225.237 118.214 225.247C118.725 225.241 119.229 225.365 119.677 225.607C120.091 225.818 120.423 226.155 120.623 226.567H120.651V225.407H121.496L121.486 231.936ZM119.531 230.949C119.888 230.718 120.174 230.395 120.356 230.016C120.561 229.587 120.663 229.118 120.654 228.644C120.664 228.166 120.562 227.691 120.356 227.258C120.174 226.879 119.888 226.556 119.531 226.325C119.18 226.103 118.77 225.987 118.353 225.992C118.031 225.98 117.711 226.038 117.416 226.164C117.122 226.29 116.86 226.479 116.65 226.717C116.202 227.261 115.974 227.947 116.009 228.644C115.976 229.336 116.204 230.016 116.65 230.554C116.858 230.796 117.119 230.988 117.414 231.116C117.709 231.245 118.03 231.306 118.353 231.295C118.773 231.292 119.183 231.168 119.531 230.937V230.949Z" fill="black"/>
<path d="M126.641 231.173V232.384H125.415V231.173H126.641Z" fill="black"/>
<path d="M135.385 230.123L136.31 230.256C136.108 230.874 135.741 231.428 135.248 231.862C134.678 232.34 133.942 232.586 133.192 232.548C132.597 232.56 132.01 232.405 131.502 232.101C131.001 231.795 130.603 231.353 130.357 230.828C130.072 230.223 129.932 229.562 129.948 228.896C129.933 228.23 130.075 227.57 130.364 226.966C130.616 226.442 131.018 225.999 131.522 225.693C132.033 225.391 132.621 225.236 133.217 225.247C134.045 225.247 134.687 225.446 135.145 225.846C135.561 226.19 135.898 226.617 136.134 227.097L135.276 227.379C135.088 227.018 134.842 226.69 134.547 226.406C134.365 226.253 134.154 226.137 133.926 226.063C133.698 225.99 133.457 225.962 133.217 225.979C132.89 225.969 132.565 226.035 132.269 226.172C131.973 226.309 131.714 226.513 131.515 226.767C131.087 227.29 130.874 228 130.874 228.896C130.874 229.793 131.086 230.502 131.51 231.023C131.707 231.274 131.962 231.476 132.255 231.611C132.547 231.747 132.869 231.813 133.192 231.803C134.243 231.803 134.974 231.243 135.385 230.123Z" fill="black"/>
<path d="M144.268 225.693C144.775 225.999 145.182 226.441 145.439 226.967C145.733 227.568 145.878 228.229 145.862 228.896C145.878 229.564 145.733 230.226 145.439 230.828C145.182 231.354 144.775 231.796 144.268 232.102C143.749 232.405 143.154 232.56 142.55 232.548C141.947 232.559 141.352 232.405 140.834 232.102C140.327 231.797 139.922 231.355 139.669 230.828C139.379 230.224 139.237 229.563 139.253 228.896C139.237 228.23 139.38 227.57 139.669 226.967C139.922 226.44 140.327 225.998 140.834 225.693C141.352 225.39 141.947 225.236 142.55 225.247C143.154 225.235 143.749 225.39 144.268 225.693ZM144.268 231.023C144.71 230.502 144.931 229.793 144.929 228.896C144.927 228 144.707 227.29 144.268 226.767C144.063 226.513 143.801 226.31 143.502 226.173C143.203 226.037 142.875 225.97 142.545 225.98C142.216 225.97 141.889 226.037 141.591 226.173C141.293 226.31 141.032 226.513 140.829 226.767C140.392 227.29 140.174 228 140.176 228.896C140.178 229.793 140.395 230.502 140.829 231.023C141.034 231.275 141.295 231.476 141.593 231.611C141.891 231.747 142.217 231.812 142.545 231.803C142.875 231.813 143.203 231.747 143.503 231.612C143.803 231.477 144.066 231.275 144.273 231.023H144.268Z" fill="black"/>
<path d="M158.48 225.887C158.911 226.315 159.126 226.919 159.126 227.7V232.389H158.228V228.073C158.228 227.353 158.097 226.839 157.84 226.494C157.689 226.321 157.499 226.186 157.284 226.101C157.069 226.015 156.837 225.98 156.606 226C156.353 225.997 156.102 226.046 155.869 226.144C155.637 226.242 155.428 226.386 155.256 226.568C154.886 226.945 154.7 227.547 154.699 228.374V232.396H153.801V228.073C153.801 227.353 153.669 226.839 153.412 226.494C153.155 226.148 152.736 226 152.166 226C151.908 225.997 151.652 226.05 151.417 226.155C151.183 226.26 150.975 226.414 150.809 226.607C150.444 227.012 150.26 227.631 150.259 228.465V232.396H149.373V225.408H150.216V226.474H150.243C150.434 226.11 150.724 225.805 151.081 225.593C151.463 225.362 151.905 225.242 152.355 225.248C152.807 225.238 153.253 225.35 153.644 225.573C154.015 225.797 154.304 226.131 154.467 226.526C154.692 226.147 155.01 225.829 155.392 225.601C155.818 225.357 156.305 225.235 156.798 225.248C157.108 225.236 157.417 225.287 157.707 225.397C157.996 225.507 158.259 225.673 158.48 225.887Z" fill="black"/>
</g>
<defs>
<clipPath id="clip0_466_65184">
<rect width="212" height="235" fill="white"/>
</clipPath>
</defs>
</svg>
