<svg width="12" height="12" viewBox="0 0 12 12" fill="none" xmlns="http://www.w3.org/2000/svg">
<g id="Frame">
<path id="Vector" d="M1.5 3.5H3" stroke="#3F322E" stroke-linecap="round" stroke-linejoin="round"/>
<path id="Vector_2" d="M1.5 8.5H4.5" stroke="#3F322E" stroke-linecap="round" stroke-linejoin="round"/>
<path id="Vector_3" d="M9 8.5H10.5" stroke="#3F322E" stroke-linecap="round" stroke-linejoin="round"/>
<path id="Vector_4" d="M7.5 3.5H10.5" stroke="#3F322E" stroke-linecap="round" stroke-linejoin="round"/>
<path id="Vector_5" d="M3 3.5C3 3.03406 3 2.80109 3.07612 2.61732C3.17761 2.37229 3.37229 2.17761 3.61732 2.07612C3.80109 2 4.03406 2 4.5 2C4.96594 2 5.1989 2 5.3827 2.07612C5.6277 2.17761 5.8224 2.37229 5.9239 2.61732C6 2.80109 6 3.03406 6 3.5C6 3.96594 6 4.19891 5.9239 4.38269C5.8224 4.62771 5.6277 4.82239 5.3827 4.92388C5.1989 5 4.96594 5 4.5 5C4.03406 5 3.80109 5 3.61732 4.92388C3.37229 4.82239 3.17761 4.62771 3.07612 4.38269C3 4.19891 3 3.96594 3 3.5Z" stroke="#3F322E"/>
<path id="Vector_6" d="M6 8.5C6 8.03405 6 7.8011 6.0761 7.6173C6.1776 7.3723 6.3723 7.1776 6.6173 7.0761C6.8011 7 7.03405 7 7.5 7C7.96595 7 8.1989 7 8.3827 7.0761C8.6277 7.1776 8.8224 7.3723 8.9239 7.6173C9 7.8011 9 8.03405 9 8.5C9 8.96595 9 9.1989 8.9239 9.3827C8.8224 9.6277 8.6277 9.8224 8.3827 9.9239C8.1989 10 7.96595 10 7.5 10C7.03405 10 6.8011 10 6.6173 9.9239C6.3723 9.8224 6.1776 9.6277 6.0761 9.3827C6 9.1989 6 8.96595 6 8.5Z" stroke="#3F322E"/>
</g>
</svg>
